<?xml version="1.0" encoding="UTF-8" standalone="no"?>
<!-- Created with Inkscape (http://www.inkscape.org/) -->

<svg
   xmlns:dc="http://purl.org/dc/elements/1.1/"
   xmlns:cc="http://creativecommons.org/ns#"
   xmlns:rdf="http://www.w3.org/1999/02/22-rdf-syntax-ns#"
   xmlns:svg="http://www.w3.org/2000/svg"
   xmlns="http://www.w3.org/2000/svg"
   xmlns:sodipodi="http://sodipodi.sourceforge.net/DTD/sodipodi-0.dtd"
   xmlns:inkscape="http://www.inkscape.org/namespaces/inkscape"
   id="svg3336"
   version="1.1"
   inkscape:version="0.91 r13725"
   width="29.013786"
   height="30.696587"
   viewBox="0 0 29.013787 30.696587"
   sodipodi:docname="grown_sticks.svg">
  <metadata
     id="metadata3342">
    <rdf:RDF>
      <cc:Work
         rdf:about="">
        <dc:format>image/svg+xml</dc:format>
        <dc:type
           rdf:resource="http://purl.org/dc/dcmitype/StillImage" />
        <dc:title></dc:title>
      </cc:Work>
    </rdf:RDF>
  </metadata>
  <defs
     id="defs3340" />
  <sodipodi:namedview
     pagecolor="#ffffff"
     bordercolor="#666666"
     borderopacity="1"
     objecttolerance="10"
     gridtolerance="10"
     guidetolerance="10"
     inkscape:pageopacity="0"
     inkscape:pageshadow="2"
     inkscape:window-width="1855"
     inkscape:window-height="1056"
     id="namedview3338"
     showgrid="false"
     inkscape:zoom="10.609488"
     inkscape:cx="-17.215995"
     inkscape:cy="-4.3369836"
     inkscape:window-x="1985"
     inkscape:window-y="24"
     inkscape:window-maximized="1"
     inkscape:current-layer="g4438"
     fit-margin-top="0"
     fit-margin-left="0"
     fit-margin-right="0"
     fit-margin-bottom="0" />
  <g
     inkscape:groupmode="layer"
     id="layer2"
     inkscape:label="Layer 2"
     transform="translate(0.32701588,0.31805706)" />
  <g
     inkscape:groupmode="layer"
     id="layer1"
     inkscape:label="Layer 1"
     transform="translate(0.32701588,0.31805706)">
    <g
       id="g4438">
      <ellipse
         ry="14.598293"
         rx="13.756893"
         cy="15.030236"
         cx="14.179877"
         id="path4171"
         style="fill:none;stroke:#767676;stroke-width:1.5;stroke-linecap:round;stroke-miterlimit:4;stroke-dasharray:none;stroke-opacity:1" />
      <g
         transform="matrix(0.36093679,0,0,0.36093679,5.732287,4.3959479)"
         id="g4160">
        <path
           style="fill:none;fill-rule:evenodd;stroke:#000000;stroke-width:6.96699572;stroke-linecap:round;stroke-linejoin:miter;stroke-miterlimit:4;stroke-dasharray:none;stroke-opacity:1"
           d="m 6.4763425,36.031581 0,10.019123 0,8.683539"
           id="path3348"
           inkscape:connector-curvature="0"
           sodipodi:nodetypes="ccc" />
        <path
           style="fill:none;fill-rule:evenodd;stroke:#000000;stroke-width:7.20777941;stroke-linecap:round;stroke-linejoin:miter;stroke-miterlimit:4;stroke-dasharray:none;stroke-opacity:1"
           d="m 23.232731,21.068876 0,33.54326"
           id="path3350"
           inkscape:connector-curvature="0" />
        <path
           style="fill:none;fill-rule:evenodd;stroke:#000000;stroke-width:7.49835539;stroke-linecap:round;stroke-linejoin:miter;stroke-miterlimit:4;stroke-dasharray:none;stroke-opacity:1"
           d="m 40.067203,4.461267 0,50.003512"
           id="path3352"
           inkscape:connector-curvature="0" />
      </g>
      <path
         style="fill:#767676;stroke:#767676;stroke-width:0.14138289;stroke-linecap:round;stroke-linejoin:round;stroke-miterlimit:3.79999995;stroke-dasharray:none;stroke-opacity:1;fill-opacity:1"
         d="m 13.854389,25.500966 c -0.168955,-0.106048 -0.391475,-0.331051 -0.494488,-0.500006 -0.181947,-0.298416 -0.187307,-0.487015 -0.187649,-6.602485 -3.39e-4,-6.055989 0.0066,-6.308989 0.183457,-6.655588 0.442853,-0.868065 1.724062,-0.870058 2.188853,-0.0034 0.16188,0.301842 0.17223,0.699587 0.17223,6.61883 0,6.801021 0.01856,6.542001 -0.50358,7.029723 -0.336283,0.314119 -0.956207,0.36564 -1.358823,0.11293 z"
         id="path4712"
         inkscape:connector-curvature="0"
         transform="translate(-0.32701588,-0.31805706)" />
      <path
         style="fill:#767676;fill-opacity:1;stroke:#767676;stroke-width:0.14138289;stroke-linecap:round;stroke-linejoin:round;stroke-miterlimit:3.79999995;stroke-dasharray:none;stroke-opacity:1"
         d="M 19.864023,25.477819 C 19.160367,25.003708 19.204546,25.683068 19.204382,15.334254 19.204221,5.149222 19.166658,5.7991331 19.785592,5.2783348 20.053938,5.0525364 20.15155,5.026416 20.590871,5.0628479 c 0.358563,0.029735 0.569779,0.1058765 0.746981,0.2692806 0.525778,0.4848383 0.505543,0.082422 0.505385,10.0509065 -1.32e-4,8.588239 -0.01138,9.238509 -0.164947,9.539672 -0.357744,0.701579 -1.20991,0.962316 -1.814267,0.555112 z"
         id="path4714"
         inkscape:connector-curvature="0"
         transform="translate(-0.32701588,-0.31805706)" />
      <path
         style="fill:#767676;fill-opacity:1;stroke:#767676;stroke-width:0.14138289;stroke-linecap:round;stroke-linejoin:round;stroke-miterlimit:3.79999995;stroke-dasharray:none;stroke-opacity:1"
         d="M 7.9330453,25.592129 C 7.6038676,25.458963 7.2488352,24.953053 7.1865335,24.528374 c -0.032286,-0.220075 -0.045458,-1.905865 -0.029272,-3.746198 0.026265,-2.98628 0.047337,-3.378828 0.1959715,-3.650796 0.2081614,-0.380888 0.6032347,-0.590691 1.1123119,-0.590691 0.3305982,0 0.4507303,0.05794 0.7587227,0.365932 l 0.3659322,0.365932 -3.523e-4,3.757736 c -3.299e-4,3.560724 -0.01,3.773555 -0.1843424,4.059489 -0.3066819,0.502975 -0.9382745,0.718452 -1.4724599,0.502351 z"
         id="path4716"
         inkscape:connector-curvature="0"
         transform="translate(-0.32701588,-0.31805706)" />
    </g>
  </g>
</svg>
